<svg fill="none" height="147" width="180" xmlns="http://www.w3.org/2000/svg"><clipPath id="a"><path d="M0 0h180v147H0z"/></clipPath><clipPath id="b"><path d="M0 16.1h180v130H0z"/></clipPath><g clip-path="url(#a)"><g clip-path="url(#b)"><path d="M112 135.297v-1.125c0-11 8.875-20 20-20 7.375 0 13.875 4.125 17.25 10.125 1.875-1.376 4.25-2.126 6.75-2.126 6.625 0 12 5.375 12 12 0 1.625-.375 3-.875 4.375 7.375 1.5 12.875 8 12.875 15.625 0 8.875-7.25 16-16 16l-46 .001c-10 0-18-8-18-18 0-7.75 5-14.5 12-16.875zM-21.5 99.725v-1.124c0-11 8.875-20 20-20 7.375 0 13.875 4.124 17.25 10.124 1.875-1.374 4.25-2.124 6.75-2.124 6.625 0 12 5.374 12 12 0 1.624-.375 2.999-.875 4.374 7.375 1.5 12.875 8 12.875 15.625 0 8.875-7.25 16-16 16h-46c-10 0-18-8-18-18 0-7.75 5-14.5 12-16.875z" fill="#fff"/><path d="M65.75 123.1l6.25-14h19l5.25 15.5L91 137.35l-9.625 4.25L72 137.35z" fill="#fab005"/><path d="M80.322 151.726c.656.563 1.5.563 2.156 0 9.938-9.375 16.876-20.25 16.876-27.469 0-11.812-7.407-20.062-18-20.062-10.594 0-18 8.25-18 19.969 0 7.406 7.03 18.187 16.968 27.562zm1.031-41.531c6.657 0 12 4.875 12 10.969 0 4.218-2.343 6.75-3.187 7.5a.736.736 0 0 1-1.031 0 .517.517 0 0 1-.282-.469v-3.75a5.242 5.242 0 0 0-5.25-5.25c-2.812 0-5.25 2.344-5.25 5.25 0 6.75 10.594 6 3.75 15.375-.28.375-.75.375-1.03.281-.094 0-.47-.187-.47-.656 0-3.094-2.343-5.063-4.874-7.219-3.094-2.719-6.376-5.437-6.376-11.062 0-6.094 5.438-10.969 12-10.969z" fill="#ffd43b"/><g fill="#fff"><path d="M125.083 48.767l4.75-1.833 1.75-4.667c.084-.417.5-.667.917-.667.333 0 .75.25.833.667l1.834 4.667 4.666 1.833c.417.083.667.5.667.833 0 .417-.25.834-.667.917l-4.666 1.75-1.834 4.75c-.083.333-.5.583-.833.583-.417 0-.833-.25-.917-.583l-1.75-4.75-4.75-1.75c-.416-.083-.583-.5-.583-.917 0-.333.167-.75.583-.833zM144.083 100.767l4.75-1.833 1.75-4.667c.084-.417.5-.667.917-.667.333 0 .75.25.833.667l1.834 4.667 4.666 1.833c.417.083.667.5.667.833 0 .417-.25.834-.667.917l-4.666 1.75-1.834 4.75c-.083.333-.5.583-.833.583-.417 0-.833-.25-.917-.583l-1.75-4.75-4.75-1.75c-.416-.083-.583-.5-.583-.917 0-.333.167-.75.583-.833zM18.083 40.767l4.75-1.833 1.75-4.667c.084-.417.5-.667.917-.667.333 0 .75.25.833.667l1.834 4.667 4.666 1.833c.417.083.667.5.667.833 0 .417-.25.834-.667.917l-4.666 1.75-1.834 4.75c-.083.333-.5.583-.833.583-.417 0-.833-.25-.917-.583l-1.75-4.75-4.75-1.75c-.416-.083-.583-.5-.583-.917 0-.333.167-.75.583-.833z"/></g></g><path d="M56.85 57.863c2.387 9.811 7.16 23.335 10.342 31.555l-12.595 12.595c-1.06 1.061-2.652 1.591-4.243 1.061-1.59-.265-2.917-1.591-3.182-3.182L42.664 81.33c-1.06-4.508.133-9.413 3.448-12.728zm38.052 31.422c3.314-8.353 8.353-21.61 10.607-31.29l10.739 10.74a13.454 13.454 0 0 1 3.579 12.595l-4.507 18.562c-.398 1.458-1.591 2.917-3.182 3.182a4.374 4.374 0 0 1-4.508-1.061z" fill="#193154"/><path d="M87.789 98.138l-13.391.133c-2.52-.133-4.64-1.458-5.436-3.845-3.182-7.955-10.474-26.914-12.596-38.581-5.17-26.915 10.474-43.62 21.877-51.31 1.856-1.326 4.242-1.326 6.098 0 11.402 7.69 27.047 24.395 21.877 51.31-2.254 11.8-9.679 30.626-12.994 38.714-.795 2.121-3.049 3.58-5.435 3.58zM86.595 39.14c2.917-2.917 3.05-7.557 0-10.606-2.916-2.917-7.69-2.917-10.606 0-3.05 3.049-2.917 7.69 0 10.606 3.05 3.05 7.557 3.05 10.606 0z" fill="#515f7c"/><path clip-rule="evenodd" d="M71.792 9.596c9.927 9.002 19.662 24.2 15.425 46.249-2.253 11.8-9.678 30.626-12.993 38.714-.476 1.27-1.476 2.303-2.714 2.927.847.465 1.833.73 2.888.785l13.39-.133c2.387 0 4.641-1.458 5.437-3.58 3.314-8.087 10.739-26.914 12.993-38.713 5.17-26.915-10.475-43.62-21.877-51.31-1.856-1.326-4.242-1.326-6.098 0a57.534 57.534 0 0 0-6.451 5.06z" fill="#193154" fill-rule="evenodd" opacity=".4"/><path d="M94.5 35.6c0 7.211-5.84 13-13 13-7.21 0-13-5.789-13-13 0-7.16 5.79-13 13-13 7.16 0 13 5.84 13 13z" fill="#515f7c"/><circle cx="81.5" cy="35.6" fill="#ffd43b" r="10"/><path clip-rule="evenodd" d="M79.5 43.6c5.523 0 10-4.477 10-10 0-2.251-.744-4.329-2-6a9.985 9.985 0 0 1 4 8c0 5.523-4.477 10-10 10a9.985 9.985 0 0 1-8-3.999 9.955 9.955 0 0 0 6 2z" fill="#fab005" fill-rule="evenodd" opacity=".3"/><path d="M76.254 30.354a7.423 7.423 0 0 0-1.19 8.94s-1.386-4.742 2-8.129c3.388-3.387 8.13-2 8.13-2a7.422 7.422 0 0 0-8.94 1.19z" fill="#fff" opacity=".5" stroke="#fff" stroke-linecap="round" stroke-linejoin="round"/></g></svg>