<svg fill="none" height="117" width="521" xmlns="http://www.w3.org/2000/svg"><clipPath id="a"><path d="M0 0h521v117H0z"/></clipPath><g clip-path="url(#a)"><path d="M348 60.344V59.5c0-8.25 6.656-15 15-15 5.531 0 10.406 3.094 12.938 7.594 1.406-1.032 3.187-1.594 5.062-1.594 4.969 0 9 4.031 9 9 0 1.219-.281 2.25-.656 3.281 5.531 1.125 9.656 6 9.656 11.719 0 6.656-5.437 12-12 12h-34.5c-7.5 0-13.5-6-13.5-13.5 0-5.813 3.75-10.875 9-12.656zM470 75.844V75c0-8.25 6.656-15 15-15 5.531 0 10.406 3.094 12.938 7.594C499.344 66.563 501.125 66 503 66c4.969 0 9 4.031 9 9 0 1.219-.281 2.25-.656 3.281 5.531 1.125 9.656 6 9.656 11.719 0 6.656-5.437 12-12 12h-34.5c-7.5 0-13.5-6-13.5-13.5 0-5.813 3.75-10.875 9-12.656zM9 75.844V75c0-8.25 6.656-15 15-15 5.531 0 10.406 3.094 12.938 7.594C38.343 66.563 40.124 66 42 66c4.969 0 9 4.031 9 9 0 1.219-.281 2.25-.656 3.281C55.875 79.406 60 84.281 60 90c0 6.656-5.438 12-12 12H13.5C6 102 0 96 0 88.5c0-5.813 3.75-10.875 9-12.656zM135 57.094v-.844c0-8.25 6.656-15 15-15 5.531 0 10.406 3.094 12.938 7.594 1.406-1.032 3.187-1.594 5.062-1.594 4.969 0 9 4.031 9 9 0 1.219-.281 2.25-.656 3.281 5.531 1.125 9.656 6 9.656 11.719 0 6.656-5.437 12-12 12h-34.5c-7.5 0-13.5-6-13.5-13.5 0-5.813 3.75-10.875 9-12.656z" fill="#fff"/><path d="M253.378 94.68l4.687-10.5h14.25l3.938 11.624-3.938 9.563-7.219 3.187-7.031-3.187z" fill="#fab005"/><path d="M264.307 116.148c.492.422 1.125.422 1.617 0 7.453-7.031 12.656-15.187 12.656-20.601 0-8.86-5.554-15.047-13.5-15.047-7.945 0-13.5 6.188-13.5 14.977 0 5.554 5.274 13.64 12.727 20.671zM265.08 85c4.993 0 9 3.656 9 8.227 0 3.164-1.757 5.062-2.39 5.625a.552.552 0 0 1-.774 0 .388.388 0 0 1-.211-.352v-2.812a3.93 3.93 0 0 0-3.937-3.938c-2.11 0-3.938 1.758-3.938 3.938 0 5.062 7.946 4.5 2.813 11.531-.211.281-.563.281-.774.211-.07 0-.351-.141-.351-.492 0-2.321-1.758-3.797-3.656-5.415-2.321-2.039-4.782-4.078-4.782-8.296 0-4.57 4.078-8.227 9-8.227z" fill="#ffd43b"/><g fill="#fff"><path d="M271.938 50.375L275.5 49l1.313-3.5c.062-.313.375-.5.687-.5.25 0 .563.188.625.5L279.5 49l3.5 1.375c.312.063.5.375.5.625 0 .313-.188.625-.5.688L279.5 53l-1.375 3.563c-.062.25-.375.437-.625.437-.312 0-.625-.188-.687-.438L275.5 53l-3.562-1.313c-.313-.062-.438-.374-.438-.687 0-.25.125-.563.438-.625zM313.438 34.875L317 33.5l1.313-3.5c.062-.313.375-.5.687-.5.25 0 .563.188.625.5L321 33.5l3.5 1.375c.312.063.5.375.5.625 0 .313-.188.625-.5.688L321 37.5l-1.375 3.563c-.062.25-.375.437-.625.437-.312 0-.625-.188-.687-.438L317 37.5l-3.562-1.313c-.313-.062-.438-.374-.438-.687 0-.25.125-.563.438-.625zM427.438 33.375L431 32l1.313-3.5c.062-.313.375-.5.687-.5.25 0 .563.188.625.5L435 32l3.5 1.375c.312.063.5.375.5.625 0 .313-.188.625-.5.688L435 36l-1.375 3.563c-.062.25-.375.437-.625.437-.312 0-.625-.188-.687-.438L431 36l-3.562-1.313c-.313-.062-.438-.374-.438-.687 0-.25.125-.563.438-.625zM491.438 40.375L495 39l1.313-3.5c.062-.313.375-.5.687-.5.25 0 .563.188.625.5L499 39l3.5 1.375c.312.063.5.375.5.625 0 .313-.188.625-.5.688L499 43l-1.375 3.563c-.062.25-.375.437-.625.437-.312 0-.625-.188-.687-.438L495 43l-3.562-1.313c-.313-.062-.438-.374-.438-.687 0-.25.125-.563.438-.625zM205.438 50.875L209 49.5l1.313-3.5c.062-.313.375-.5.687-.5.25 0 .563.188.625.5L213 49.5l3.5 1.375c.312.063.5.375.5.625 0 .313-.188.625-.5.688L213 53.5l-1.375 3.563c-.062.25-.375.437-.625.437-.312 0-.625-.188-.687-.438L209 53.5l-3.562-1.313c-.313-.062-.438-.374-.438-.687 0-.25.125-.563.438-.625zM106.438 35.375L110 34l1.313-3.5c.062-.313.375-.5.687-.5.25 0 .563.188.625.5L114 34l3.5 1.375c.312.063.5.375.5.625 0 .313-.188.625-.5.688L114 38l-1.375 3.563c-.062.25-.375.437-.625.437-.312 0-.625-.188-.687-.438L110 38l-3.562-1.313c-.313-.062-.438-.374-.438-.687 0-.25.125-.563.438-.625zM60.438 47.375L64 46l1.313-3.5c.062-.313.374-.5.687-.5.25 0 .563.188.625.5L68 46l3.5 1.375c.313.063.5.375.5.625 0 .313-.188.625-.5.688L68 50l-1.375 3.563c-.063.25-.375.437-.625.437-.313 0-.625-.188-.688-.438L64 50l-3.563-1.313C60.126 48.626 60 48.313 60 48c0-.25.125-.563.438-.625z"/></g><path d="M246.254 43.397c1.79 7.359 5.37 17.501 7.756 23.666l-9.446 9.447c-.796.795-1.989 1.193-3.182.795-1.193-.199-2.188-1.193-2.387-2.386l-3.381-13.921c-.795-3.381.1-7.06 2.586-9.546zm28.539 23.567c2.486-6.265 6.264-16.208 7.955-23.467l8.054 8.054a10.091 10.091 0 0 1 2.685 9.447l-3.381 13.92c-.298 1.095-1.193 2.188-2.387 2.387a3.278 3.278 0 0 1-3.38-.795z" fill="#193154"/><path d="M269.458 73.604l-10.044.1c-1.889-.1-3.48-1.095-4.076-2.884-2.387-5.967-7.856-20.186-9.447-28.937-3.878-20.185 7.856-32.714 16.407-38.482a3.88 3.88 0 0 1 4.574 0c8.552 5.768 20.285 18.297 16.407 38.482-1.69 8.85-7.259 22.97-9.745 29.036-.596 1.591-2.287 2.685-4.076 2.685zm-.895-44.25c2.187-2.187 2.287-5.667 0-7.955-2.188-2.187-5.768-2.187-7.955 0-2.287 2.288-2.188 5.768 0 7.955 2.287 2.287 5.668 2.287 7.955 0z" fill="#515f7c"/><path clip-rule="evenodd" d="M257.46 7.197c7.445 6.751 14.746 18.15 11.569 34.686-1.69 8.85-7.259 22.97-9.745 29.036-.357.953-1.107 1.728-2.035 2.196.635.348 1.374.547 2.165.588l10.043-.1c1.79 0 3.481-1.093 4.077-2.684 2.486-6.066 8.055-20.186 9.745-29.036 3.878-20.185-7.855-32.714-16.407-38.482a3.88 3.88 0 0 0-4.574 0 43.153 43.153 0 0 0-4.838 3.796z" fill="#193154" fill-rule="evenodd" opacity=".4"/><path d="M274.491 26.7c0 5.409-4.38 9.75-9.75 9.75a9.72 9.72 0 0 1-9.75-9.75c0-5.37 4.342-9.75 9.75-9.75 5.37 0 9.75 4.38 9.75 9.75z" fill="#515f7c"/><circle cx="264.741" cy="26.7" fill="#ffd43b" r="7.5"/><path clip-rule="evenodd" d="M263.241 32.7a7.5 7.5 0 0 0 6-12 7.5 7.5 0 1 1-10.5 10.501 7.47 7.47 0 0 0 4.5 1.5z" fill="#fab005" fill-rule="evenodd" opacity=".3"/><path d="M260.807 22.766a5.567 5.567 0 0 0-.893 6.705s-1.04-3.557 1.501-6.097c2.54-2.54 6.097-1.5 6.097-1.5a5.566 5.566 0 0 0-6.705.892z" opacity=".5" fill="#fff" stroke="#fff" stroke-width=".75" stroke-linecap="round" stroke-linejoin="round"/></g></svg>